<svg width="34" height="34" viewBox="0 0 34 34" fill="none" xmlns="http://www.w3.org/2000/svg">
<path d="M16.9997 18.6666C17.4719 18.6666 17.868 18.5066 18.188 18.1866C18.5069 17.8678 18.6663 17.4722 18.6663 17V10.2916C18.6663 9.81942 18.5069 9.43054 18.188 9.12498C17.868 8.81942 17.4719 8.66665 16.9997 8.66665C16.5275 8.66665 16.1319 8.82609 15.813 9.14498C15.493 9.46498 15.333 9.86109 15.333 10.3333V17.0416C15.333 17.5139 15.493 17.9028 15.813 18.2083C16.1319 18.5139 16.5275 18.6666 16.9997 18.6666ZM16.9997 25.3333C17.4719 25.3333 17.868 25.1733 18.188 24.8533C18.5069 24.5344 18.6663 24.1389 18.6663 23.6666C18.6663 23.1944 18.5069 22.7983 18.188 22.4783C17.868 22.1594 17.4719 22 16.9997 22C16.5275 22 16.1319 22.1594 15.813 22.4783C15.493 22.7983 15.333 23.1944 15.333 23.6666C15.333 24.1389 15.493 24.5344 15.813 24.8533C16.1319 25.1733 16.5275 25.3333 16.9997 25.3333ZM16.9997 33.6666C14.6941 33.6666 12.5275 33.2289 10.4997 32.3533C8.4719 31.4789 6.70801 30.2916 5.20801 28.7916C3.70801 27.2916 2.52079 25.5278 1.64634 23.5C0.770786 21.4722 0.333008 19.3055 0.333008 17C0.333008 14.6944 0.770786 12.5278 1.64634 10.5C2.52079 8.4722 3.70801 6.70831 5.20801 5.20831C6.70801 3.70831 8.4719 2.52054 10.4997 1.64498C12.5275 0.770535 14.6941 0.333313 16.9997 0.333313C19.3052 0.333313 21.4719 0.770535 23.4997 1.64498C25.5275 2.52054 27.2913 3.70831 28.7913 5.20831C30.2913 6.70831 31.4786 8.4722 32.353 10.5C33.2286 12.5278 33.6663 14.6944 33.6663 17C33.6663 19.3055 33.2286 21.4722 32.353 23.5C31.4786 25.5278 30.2913 27.2916 28.7913 28.7916C27.2913 30.2916 25.5275 31.4789 23.4997 32.3533C21.4719 33.2289 19.3052 33.6666 16.9997 33.6666Z" fill="black"/>
</svg>
