<svg width="40" height="40" viewBox="0 0 40 40" fill="none" xmlns="http://www.w3.org/2000/svg">
<g clip-path="url(#clip0_317_1907)">
<path d="M20.0004 2.22223C16.4843 2.22223 13.0472 3.26488 10.1236 5.21832C7.2001 7.17177 4.92147 9.94828 3.57592 13.1967C2.23036 16.4452 1.8783 20.0197 2.56426 23.4683C3.25022 26.9168 4.94339 30.0845 7.42966 32.5708C9.91592 35.0571 13.0836 36.7502 16.5322 37.4362C19.9807 38.1222 23.5552 37.7701 26.8037 36.4245C30.0522 35.079 32.8287 32.8004 34.7821 29.8768C36.7356 26.9533 37.7782 23.5161 37.7782 20C37.7782 15.285 35.9052 10.7632 32.5712 7.42922C29.2373 4.09524 24.7154 2.22223 20.0004 2.22223ZM31.6116 14.0333L17.0116 28.6222L8.38933 20C8.09465 19.7053 7.92909 19.3056 7.92909 18.8889C7.92909 18.4721 8.09465 18.0725 8.38933 17.7778C8.68402 17.4831 9.0837 17.3175 9.50044 17.3175C9.91719 17.3175 10.3169 17.4831 10.6116 17.7778L17.0338 24.2L29.4116 11.8333C29.5575 11.6874 29.7307 11.5717 29.9213 11.4927C30.112 11.4137 30.3163 11.3731 30.5227 11.3731C30.729 11.3731 30.9334 11.4137 31.124 11.4927C31.3146 11.5717 31.4879 11.6874 31.6338 11.8333C31.7797 11.9793 31.8954 12.1525 31.9744 12.3431C32.0534 12.5338 32.094 12.7381 32.094 12.9445C32.094 13.1508 32.0534 13.3551 31.9744 13.5458C31.8954 13.7364 31.7797 13.9096 31.6338 14.0556L31.6116 14.0333Z" fill="black"/>
</g>
<defs>
<clipPath id="clip0_317_1907">
<rect width="40" height="40" fill="white"/>
</clipPath>
</defs>
</svg>
